<svg width="32" height="32" viewBox="0 0 32 32" fill="none" xmlns="http://www.w3.org/2000/svg">
<path d="M7.9974 29.3237C7.29039 29.3237 6.61233 29.0429 6.1124 28.543C5.61246 28.043 5.3316 27.365 5.3316 26.658V5.33157C5.3316 4.62456 5.61246 3.9465 6.1124 3.44657C6.61233 2.94664 7.29039 2.66578 7.9974 2.66578H18.6606C19.0825 2.66509 19.5004 2.74789 19.8902 2.90939C20.28 3.07089 20.634 3.30791 20.9319 3.6068L25.7143 8.38924C26.014 8.68715 26.2517 9.04149 26.4137 9.43178C26.5756 9.82208 26.6587 10.2406 26.658 10.6632V26.658C26.658 27.365 26.3771 28.043 25.8772 28.543C25.3773 29.0429 24.6992 29.3237 23.9922 29.3237H7.9974Z" stroke="#3A72C2" stroke-width="2.6658" stroke-linecap="round" stroke-linejoin="round"/>
<path d="M18.6606 2.66577V9.33026C18.6606 9.68377 18.801 10.0228 19.051 10.2728C19.3009 10.5227 19.64 10.6632 19.9935 10.6632H26.658" stroke="#3A72C2" stroke-width="2.6658" stroke-linecap="round" stroke-linejoin="round"/>
<path d="M13.329 11.9961H10.6632" stroke="#3A72C2" stroke-width="2.6658" stroke-linecap="round" stroke-linejoin="round"/>
<path d="M21.3264 17.3277H10.6632" stroke="#3A72C2" stroke-width="2.6658" stroke-linecap="round" stroke-linejoin="round"/>
<path d="M21.3264 22.6593H10.6632" stroke="#3A72C2" stroke-width="2.6658" stroke-linecap="round" stroke-linejoin="round"/>
</svg>
