<svg width="17" height="18" viewBox="0 0 17 18" fill="none" xmlns="http://www.w3.org/2000/svg">
<path d="M0.83252 7.49289C0.832462 7.25069 0.885245 7.0114 0.987187 6.7917C1.08913 6.57199 1.23778 6.37718 1.42276 6.22084L7.25024 1.22586C7.55076 0.97187 7.93152 0.83252 8.32499 0.83252C8.71846 0.83252 9.09922 0.97187 9.39974 1.22586L15.2272 6.22084C15.4122 6.37718 15.5609 6.57199 15.6628 6.7917C15.7647 7.0114 15.8175 7.25069 15.8175 7.49289V14.9854C15.8175 15.4269 15.642 15.8504 15.3298 16.1627C15.0175 16.4749 14.5941 16.6504 14.1525 16.6504H2.49751C2.05593 16.6504 1.63243 16.4749 1.32018 16.1627C1.00794 15.8504 0.83252 15.4269 0.83252 14.9854V7.49289Z" stroke="#3A72C2" stroke-width="1.66499" stroke-linecap="round" stroke-linejoin="round"/>
</svg>
