<svg width="20" height="20" viewBox="0 0 20 20" fill="none" xmlns="http://www.w3.org/2000/svg">
<path d="M12.4875 17.4825V10.8225C12.4875 10.6017 12.3998 10.3899 12.2436 10.2338C12.0875 10.0777 11.8758 9.98999 11.655 9.98999H8.32499C8.1042 9.98999 7.89245 10.0777 7.73633 10.2338C7.5802 10.3899 7.49249 10.6017 7.49249 10.8225V17.4825" stroke="#9CA3AF" stroke-width="1.66499" stroke-linecap="round" stroke-linejoin="round"/>
<path d="M2.4975 8.32492C2.49744 8.08272 2.55022 7.84343 2.65217 7.62373C2.75411 7.40403 2.90276 7.20921 3.08774 7.05287L8.91522 2.05789C9.21574 1.8039 9.59649 1.66455 9.98997 1.66455C10.3834 1.66455 10.7642 1.8039 11.0647 2.05789L16.8922 7.05287C17.0772 7.20921 17.2258 7.40403 17.3278 7.62373C17.4297 7.84343 17.4825 8.08272 17.4824 8.32492V15.8174C17.4824 16.259 17.307 16.6825 16.9948 16.9947C16.6825 17.307 16.259 17.4824 15.8174 17.4824H4.16249C3.72091 17.4824 3.29741 17.307 2.98516 16.9947C2.67292 16.6825 2.4975 16.259 2.4975 15.8174V8.32492Z" stroke="#9CA3AF" stroke-width="1.66499" stroke-linecap="round" stroke-linejoin="round"/>
</svg>
