<svg width="32" height="32" viewBox="0 0 32 32" fill="none" xmlns="http://www.w3.org/2000/svg">
<path d="M19.9935 2.66577H11.9961C11.26 2.66577 10.6632 3.26253 10.6632 3.99867V6.66447C10.6632 7.40061 11.26 7.99737 11.9961 7.99737H19.9935C20.7296 7.99737 21.3264 7.40061 21.3264 6.66447V3.99867C21.3264 3.26253 20.7296 2.66577 19.9935 2.66577Z" stroke="#3A72C2" stroke-width="2.6658" stroke-linecap="round" stroke-linejoin="round"/>
<path d="M21.3264 5.3316H23.9922C24.6992 5.3316 25.3773 5.61246 25.8772 6.1124C26.3771 6.61233 26.658 7.29039 26.658 7.9974V26.658C26.658 27.365 26.3771 28.0431 25.8772 28.543C25.3773 29.0429 24.6992 29.3238 23.9922 29.3238H7.9974C7.29039 29.3238 6.61233 29.0429 6.1124 28.543C5.61246 28.0431 5.3316 27.365 5.3316 26.658V7.9974C5.3316 7.29039 5.61246 6.61233 6.1124 6.1124C6.61233 5.61246 7.29039 5.3316 7.9974 5.3316H10.6632" stroke="#3A72C2" stroke-width="2.6658" stroke-linecap="round" stroke-linejoin="round"/>
<path d="M11.9961 18.6606L14.6619 21.3264L19.9935 15.9948" stroke="#3A72C2" stroke-width="2.6658" stroke-linecap="round" stroke-linejoin="round"/>
</svg>
