<svg width="20" height="20" viewBox="0 0 20 20" fill="none" xmlns="http://www.w3.org/2000/svg">
<path d="M12.4875 1.66504H7.49247C7.03269 1.66504 6.65997 2.03776 6.65997 2.49754V4.16253C6.65997 4.6223 7.03269 4.99503 7.49247 4.99503H12.4875C12.9472 4.99503 13.3199 4.6223 13.3199 4.16253V2.49754C13.3199 2.03776 12.9472 1.66504 12.4875 1.66504Z" stroke="#9CA3AF" stroke-width="1.66499" stroke-linecap="round" stroke-linejoin="round"/>
<path d="M13.32 3.32996H14.985C15.4266 3.32996 15.8501 3.50537 16.1623 3.81762C16.4745 4.12987 16.65 4.55337 16.65 4.99495V16.6499C16.65 17.0915 16.4745 17.515 16.1623 17.8272C15.8501 18.1395 15.4266 18.3149 14.985 18.3149H4.99501C4.55343 18.3149 4.12993 18.1395 3.81768 17.8272C3.50544 17.515 3.33002 17.0915 3.33002 16.6499V4.99495C3.33002 4.55337 3.50544 4.12987 3.81768 3.81762C4.12993 3.50537 4.55343 3.32996 4.99501 3.32996H6.66" stroke="#9CA3AF" stroke-width="1.66499" stroke-linecap="round" stroke-linejoin="round"/>
<path d="M7.49249 11.655L9.15749 13.32L12.4875 9.98999" stroke="#9CA3AF" stroke-width="1.66499" stroke-linecap="round" stroke-linejoin="round"/>
</svg>
