<svg width="94" height="13" viewBox="0 0 94 13" fill="none" xmlns="http://www.w3.org/2000/svg">
<path d="M0 10.0215V0H4.44336C5.33659 0 6.01562 0.0911458 6.48047 0.273438C6.94531 0.451172 7.31673 0.767904 7.59473 1.22363C7.87272 1.67936 8.01172 2.18294 8.01172 2.73438C8.01172 3.44531 7.78158 4.0446 7.32129 4.53223C6.861 5.01986 6.15007 5.32975 5.18848 5.46191C5.53939 5.63053 5.80599 5.79688 5.98828 5.96094C6.37565 6.31641 6.74251 6.76074 7.08887 7.29395L8.83203 10.0215H7.16406L5.83789 7.93652C5.45052 7.33496 5.13151 6.87467 4.88086 6.55566C4.63021 6.23665 4.40462 6.01335 4.2041 5.88574C4.00814 5.75814 3.80762 5.66927 3.60254 5.61914C3.45215 5.58724 3.20605 5.57129 2.86426 5.57129H1.32617V10.0215H0ZM1.32617 4.42285H4.17676C4.78288 4.42285 5.25684 4.36133 5.59863 4.23828C5.94043 4.11068 6.2002 3.91016 6.37793 3.63672C6.55566 3.35872 6.64453 3.05794 6.64453 2.73438C6.64453 2.26042 6.47135 1.87077 6.125 1.56543C5.7832 1.26009 5.24089 1.10742 4.49805 1.10742H1.32617V4.42285ZM14.9092 7.68359L16.1807 7.84082C15.9801 8.58366 15.6087 9.16016 15.0664 9.57031C14.5241 9.98047 13.8314 10.1855 12.9883 10.1855C11.9264 10.1855 11.0833 9.8597 10.459 9.20801C9.83919 8.55176 9.5293 7.63346 9.5293 6.45312C9.5293 5.23177 9.84375 4.28385 10.4727 3.60938C11.1016 2.9349 11.9173 2.59766 12.9199 2.59766C13.8906 2.59766 14.6836 2.92806 15.2988 3.58887C15.9141 4.24967 16.2217 5.17936 16.2217 6.37793C16.2217 6.45085 16.2194 6.56022 16.2148 6.70605H10.8008C10.8464 7.50358 11.0719 8.11426 11.4775 8.53809C11.8831 8.96191 12.389 9.17383 12.9951 9.17383C13.4463 9.17383 13.8314 9.05534 14.1504 8.81836C14.4694 8.58138 14.7223 8.20312 14.9092 7.68359ZM10.8691 5.69434H14.9229C14.8682 5.08366 14.7132 4.62565 14.458 4.32031C14.0661 3.84635 13.5579 3.60938 12.9336 3.60938C12.3685 3.60938 11.8923 3.7985 11.5049 4.17676C11.1221 4.55501 10.9102 5.06087 10.8691 5.69434ZM17.7324 12.8037V2.76172H18.8535V3.70508C19.1178 3.33594 19.4163 3.06022 19.749 2.87793C20.0817 2.69108 20.485 2.59766 20.959 2.59766C21.5788 2.59766 22.1257 2.75716 22.5996 3.07617C23.0736 3.39518 23.4313 3.84635 23.6729 4.42969C23.9144 5.00846 24.0352 5.64421 24.0352 6.33691C24.0352 7.07975 23.9007 7.74967 23.6318 8.34668C23.3675 8.93913 22.9801 9.39486 22.4697 9.71387C21.9639 10.0283 21.4307 10.1855 20.8701 10.1855C20.46 10.1855 20.0908 10.099 19.7627 9.92578C19.4391 9.7526 19.1725 9.53385 18.9629 9.26953V12.8037H17.7324ZM18.8467 6.43262C18.8467 7.36686 19.0358 8.05729 19.4141 8.50391C19.7923 8.95052 20.2503 9.17383 20.7881 9.17383C21.335 9.17383 21.8021 8.94368 22.1895 8.4834C22.5814 8.01855 22.7773 7.30078 22.7773 6.33008C22.7773 5.40495 22.5859 4.71224 22.2031 4.25195C21.8249 3.79167 21.3714 3.56152 20.8428 3.56152C20.3187 3.56152 19.8538 3.80762 19.4482 4.2998C19.0472 4.78743 18.8467 5.49837 18.8467 6.43262ZM25.0674 6.3916C25.0674 5.0472 25.4411 4.05143 26.1885 3.4043C26.8128 2.86654 27.5739 2.59766 28.4717 2.59766C29.4697 2.59766 30.2855 2.92578 30.9189 3.58203C31.5524 4.23372 31.8691 5.13607 31.8691 6.28906C31.8691 7.22331 31.7279 7.95931 31.4453 8.49707C31.1673 9.03027 30.7594 9.44499 30.2217 9.74121C29.6885 10.0374 29.1051 10.1855 28.4717 10.1855C27.4554 10.1855 26.6328 9.8597 26.0039 9.20801C25.3796 8.55632 25.0674 7.61751 25.0674 6.3916ZM26.332 6.3916C26.332 7.32129 26.5348 8.01855 26.9404 8.4834C27.346 8.94368 27.8564 9.17383 28.4717 9.17383C29.0824 9.17383 29.5905 8.94141 29.9961 8.47656C30.4017 8.01172 30.6045 7.30306 30.6045 6.35059C30.6045 5.4528 30.3994 4.77376 29.9893 4.31348C29.5837 3.84863 29.0778 3.61621 28.4717 3.61621C27.8564 3.61621 27.346 3.84635 26.9404 4.30664C26.5348 4.76693 26.332 5.46191 26.332 6.3916ZM33.3047 10.0215V2.76172H34.4121V3.8623C34.6947 3.34733 34.9544 3.00781 35.1914 2.84375C35.4329 2.67969 35.6973 2.59766 35.9844 2.59766C36.3991 2.59766 36.8206 2.72982 37.249 2.99414L36.8252 4.13574C36.5244 3.95801 36.2236 3.86914 35.9229 3.86914C35.654 3.86914 35.4124 3.95117 35.1982 4.11523C34.984 4.27474 34.8314 4.49805 34.7402 4.78516C34.6035 5.22266 34.5352 5.70117 34.5352 6.2207V10.0215H33.3047ZM40.667 8.9209L40.8447 10.0078C40.4984 10.0807 40.1885 10.1172 39.915 10.1172C39.4684 10.1172 39.1221 10.0465 38.876 9.90527C38.6299 9.764 38.4567 9.57943 38.3564 9.35156C38.2562 9.11914 38.2061 8.63379 38.2061 7.89551V3.71875H37.3037V2.76172H38.2061V0.963867L39.4297 0.225586V2.76172H40.667V3.71875H39.4297V7.96387C39.4297 8.31478 39.4502 8.54036 39.4912 8.64062C39.5368 8.74089 39.6074 8.82064 39.7031 8.87988C39.8034 8.93913 39.9447 8.96875 40.127 8.96875C40.2637 8.96875 40.4437 8.9528 40.667 8.9209ZM46.1562 10.0215V0H47.4824V10.0215H46.1562ZM49.6699 10.0215V2.76172H50.7773V3.79395C51.3105 2.99642 52.0807 2.59766 53.0879 2.59766C53.5254 2.59766 53.9264 2.67741 54.291 2.83691C54.6602 2.99186 54.9359 3.19694 55.1182 3.45215C55.3005 3.70736 55.4281 4.01042 55.501 4.36133C55.5465 4.58919 55.5693 4.98796 55.5693 5.55762V10.0215H54.3389V5.60547C54.3389 5.10417 54.291 4.73047 54.1953 4.48438C54.0996 4.23372 53.9287 4.03548 53.6826 3.88965C53.4411 3.73926 53.1562 3.66406 52.8281 3.66406C52.304 3.66406 51.8506 3.8304 51.4678 4.16309C51.0895 4.49577 50.9004 5.12695 50.9004 6.05664V10.0215H49.6699ZM62.2002 7.3623L63.4102 7.51953C63.278 8.35352 62.9385 9.00749 62.3916 9.48145C61.8493 9.95085 61.1816 10.1855 60.3887 10.1855C59.3952 10.1855 58.5954 9.86198 57.9893 9.21484C57.3877 8.56315 57.0869 7.63118 57.0869 6.41895C57.0869 5.63509 57.2168 4.94922 57.4766 4.36133C57.7363 3.77344 58.1305 3.33366 58.6592 3.04199C59.1924 2.74577 59.7712 2.59766 60.3955 2.59766C61.1839 2.59766 61.8288 2.79818 62.3301 3.19922C62.8314 3.5957 63.1527 4.16081 63.2939 4.89453L62.0977 5.0791C61.9837 4.59147 61.7809 4.22461 61.4893 3.97852C61.2021 3.73242 60.8535 3.60938 60.4434 3.60938C59.8236 3.60938 59.32 3.83268 58.9326 4.2793C58.5452 4.72135 58.3516 5.42318 58.3516 6.38477C58.3516 7.36003 58.5384 8.06868 58.9121 8.51074C59.2858 8.9528 59.7734 9.17383 60.375 9.17383C60.8581 9.17383 61.2614 9.02572 61.585 8.72949C61.9085 8.43327 62.1136 7.97754 62.2002 7.3623ZM64.4697 1.41504V0H65.7002V1.41504H64.4697ZM64.4697 10.0215V2.76172H65.7002V10.0215H64.4697ZM72.29 10.0215V9.10547C71.8298 9.82552 71.153 10.1855 70.2598 10.1855C69.681 10.1855 69.1478 10.026 68.6602 9.70703C68.1771 9.38802 67.8011 8.94368 67.5322 8.37402C67.2679 7.7998 67.1357 7.14128 67.1357 6.39844C67.1357 5.67383 67.2565 5.01758 67.498 4.42969C67.7396 3.83724 68.1019 3.38379 68.585 3.06934C69.068 2.75488 69.6081 2.59766 70.2051 2.59766C70.6426 2.59766 71.0322 2.69108 71.374 2.87793C71.7158 3.06022 71.9938 3.29948 72.208 3.5957V0H73.4316V10.0215H72.29ZM68.4004 6.39844C68.4004 7.32812 68.5964 8.02311 68.9883 8.4834C69.3802 8.94368 69.8428 9.17383 70.376 9.17383C70.9137 9.17383 71.3695 8.95508 71.7432 8.51758C72.1214 8.07552 72.3105 7.40332 72.3105 6.50098C72.3105 5.50749 72.1191 4.77832 71.7363 4.31348C71.3535 3.84863 70.8818 3.61621 70.3213 3.61621C69.7744 3.61621 69.3164 3.83952 68.9473 4.28613C68.5827 4.73275 68.4004 5.43685 68.4004 6.39844ZM80.3428 7.68359L81.6143 7.84082C81.4137 8.58366 81.0423 9.16016 80.5 9.57031C79.9577 9.98047 79.265 10.1855 78.4219 10.1855C77.36 10.1855 76.5169 9.8597 75.8926 9.20801C75.2728 8.55176 74.9629 7.63346 74.9629 6.45312C74.9629 5.23177 75.2773 4.28385 75.9062 3.60938C76.5352 2.9349 77.3509 2.59766 78.3535 2.59766C79.3242 2.59766 80.1172 2.92806 80.7324 3.58887C81.3477 4.24967 81.6553 5.17936 81.6553 6.37793C81.6553 6.45085 81.653 6.56022 81.6484 6.70605H76.2344C76.2799 7.50358 76.5055 8.11426 76.9111 8.53809C77.3167 8.96191 77.8226 9.17383 78.4287 9.17383C78.8799 9.17383 79.265 9.05534 79.584 8.81836C79.903 8.58138 80.1559 8.20312 80.3428 7.68359ZM76.3027 5.69434H80.3564C80.3018 5.08366 80.1468 4.62565 79.8916 4.32031C79.4997 3.84635 78.9915 3.60938 78.3672 3.60938C77.8021 3.60938 77.3258 3.7985 76.9385 4.17676C76.5557 4.55501 76.3438 5.06087 76.3027 5.69434ZM83.166 10.0215V2.76172H84.2734V3.79395C84.8066 2.99642 85.5768 2.59766 86.584 2.59766C87.0215 2.59766 87.4225 2.67741 87.7871 2.83691C88.1562 2.99186 88.432 3.19694 88.6143 3.45215C88.7965 3.70736 88.9242 4.01042 88.9971 4.36133C89.0426 4.58919 89.0654 4.98796 89.0654 5.55762V10.0215H87.835V5.60547C87.835 5.10417 87.7871 4.73047 87.6914 4.48438C87.5957 4.23372 87.4248 4.03548 87.1787 3.88965C86.9372 3.73926 86.6523 3.66406 86.3242 3.66406C85.8001 3.66406 85.3467 3.8304 84.9639 4.16309C84.5856 4.49577 84.3965 5.12695 84.3965 6.05664V10.0215H83.166ZM93.6455 8.9209L93.8232 10.0078C93.4769 10.0807 93.167 10.1172 92.8936 10.1172C92.4469 10.1172 92.1006 10.0465 91.8545 9.90527C91.6084 9.764 91.4352 9.57943 91.335 9.35156C91.2347 9.11914 91.1846 8.63379 91.1846 7.89551V3.71875H90.2822V2.76172H91.1846V0.963867L92.4082 0.225586V2.76172H93.6455V3.71875H92.4082V7.96387C92.4082 8.31478 92.4287 8.54036 92.4697 8.64062C92.5153 8.74089 92.5859 8.82064 92.6816 8.87988C92.7819 8.93913 92.9232 8.96875 93.1055 8.96875C93.2422 8.96875 93.4222 8.9528 93.6455 8.9209Z" fill="#364153"/>
</svg>
