<svg width="18" height="22" viewBox="0 0 18 22" fill="none" xmlns="http://www.w3.org/2000/svg">
<path d="M16.9945 11.9965C16.9945 16.9949 13.4956 19.4941 9.33698 20.9436C9.11921 21.0174 8.88266 21.0139 8.66719 20.9336C4.49855 19.4941 0.999695 16.9949 0.999695 11.9965V4.99882C0.999695 4.73369 1.10502 4.47942 1.29249 4.29194C1.47997 4.10447 1.73424 3.99915 1.99937 3.99915C3.99872 3.99915 6.4979 2.79954 8.23733 1.28003C8.44912 1.09909 8.71853 0.999674 8.99709 0.999674C9.27564 0.999674 9.54505 1.09909 9.75684 1.28003C11.5063 2.80953 13.9955 3.99915 15.9948 3.99915C16.2599 3.99915 16.5142 4.10447 16.7017 4.29194C16.8892 4.47942 16.9945 4.73369 16.9945 4.99882V11.9965Z" stroke="white" stroke-width="1.99935" stroke-linecap="round" stroke-linejoin="round"/>
</svg>
